<?xml version="1.0" encoding="iso-8859-1"?>
<!-- Generator: Adobe Illustrator 19.0.0, SVG Export Plug-In . SVG Version: 6.00 Build 0)  -->
<svg version="1.1" id="Capa_1" xmlns="http://www.w3.org/2000/svg" xmlns:xlink="http://www.w3.org/1999/xlink" x="0px" y="0px"
	 viewBox="0 0 490 490" style="enable-background:new 0 0 490 490;" xml:space="preserve">
<g>
	<g>
		<rect x="0.1" width="489.9" height="87.9"/>
		<path fill='white' d="M0,112.4V490h490V112.4H0z M116.7,429.3H60.3v-64.9h56.4C116.7,364.4,116.7,429.3,116.7,429.3z M116.7,327.4H60.3v-64.9
			h56.4C116.7,262.5,116.7,327.4,116.7,327.4z M116.7,225.9H60.3v-65.3h56.4C116.7,160.6,116.7,225.9,116.7,225.9z M429.7,401.3
			h-245c-7,0-12.4-5.4-12.4-12.4s5.4-12.4,12.4-12.4h244.9c7,0,12.4,5.4,12.4,12.4S436.7,401.3,429.7,401.3z M429.7,307.6h-245
			c-7,0-12.4-5.4-12.4-12.4s5.4-12.4,12.4-12.4h244.9c7,0,12.4,5.4,12.4,12.4S436.7,307.6,429.7,307.6z M429.7,213.5h-245
			c-7,0-12.4-5.4-12.4-12.4s5.4-12.4,12.4-12.4h244.9c7,0,12.4,5.4,12.4,12.4S436.7,213.5,429.7,213.5z"/>
	</g>
</g>
</svg>
